<?xml version="1.0" standalone="no"?>
<!DOCTYPE svg PUBLIC "-//W3C//DTD SVG 20010904//EN"
 "http://www.w3.org/TR/2001/REC-SVG-20010904/DTD/svg10.dtd">
<svg version="1.0" xmlns="http://www.w3.org/2000/svg"
 width="270.000000pt" height="270.000000pt" viewBox="0 0 270.000000 270.000000"
 preserveAspectRatio="xMidYMid meet">
<metadata>
Created by potrace 1.11, written by Peter Selinger 2001-2013
</metadata>
<g transform="translate(0.000000,270.000000) scale(0.100000,-0.100000)"
fill="#000000" stroke="none">
<path d="M1020 2277 c-3 -3 -31 -8 -62 -11 -197 -23 -439 -167 -580 -346 -47
-60 -118 -182 -118 -203 0 -9 -4 -17 -10 -17 -5 0 -9 -3 -8 -7 1 -5 -8 -39
-21 -78 -12 -38 -25 -88 -28 -110 -8 -59 -9 -252 -1 -310 18 -128 93 -302 178
-415 66 -87 209 -211 295 -255 167 -87 273 -111 475 -109 101 1 153 7 205 22
39 10 77 21 85 23 8 2 17 6 20 10 3 3 25 13 50 22 38 14 140 75 188 112 8 5
51 47 97 93 l83 82 86 0 c76 0 89 -3 108 -23 51 -51 110 -61 165 -27 36 22 49
41 58 91 14 75 -61 157 -132 145 -16 -2 -31 -5 -35 -5 -4 -1 -23 -15 -43 -33
l-36 -31 -529 0 -528 0 -4 -45 c-6 -76 -18 -73 307 -73 l290 0 -30 -25 c-66
-53 -214 -116 -310 -130 -96 -14 -245 -6 -315 16 -55 18 -65 21 -70 22 -16 2
-139 74 -174 101 -180 140 -287 349 -288 567 -1 106 7 156 37 246 113 338 444
540 804 491 43 -6 136 -34 156 -46 8 -5 357 -6 373 -2 6 2 -54 54 -105 92 -92
69 -234 130 -358 155 -41 8 -269 17 -275 11z m1230 -1392 c12 -31 -3 -75 -25
-75 -24 0 -39 52 -23 83 13 25 37 21 48 -8z"/>
<path d="M1985 1942 c-16 -8 -37 -25 -47 -37 l-17 -22 -528 0 -527 0 -2 -49
-3 -49 531 0 531 0 9 -21 c35 -75 180 -66 217 14 16 34 13 90 -6 122 -29 50
-105 70 -158 42z m159 -97 c7 -26 -8 -75 -23 -75 -15 0 -33 29 -33 55 0 52 44
68 56 20z"/>
<path d="M2340 1702 c-17 -8 -35 -23 -41 -33 -9 -18 -34 -19 -539 -19 l-530 0
0 -58 0 -58 522 0 521 1 31 -27 c43 -38 80 -51 118 -44 49 9 86 46 97 97 6 24
10 45 11 47 3 9 -45 80 -62 91 -31 19 -92 21 -128 3z m137 -64 c28 -36 18 -88
-16 -88 -22 0 -33 43 -20 77 10 26 22 29 36 11z"/>
<path d="M2106 1455 c-16 -9 -36 -25 -43 -35 -14 -19 -29 -20 -549 -20 -349 0
-534 -3 -535 -10 0 -5 -1 -25 -1 -43 -2 -69 -44 -64 536 -64 l526 0 22 -22
c80 -87 217 -42 223 73 6 101 -92 166 -179 121z m114 -90 c19 -49 -26 -103
-48 -57 -9 19 -8 54 2 71 12 19 36 12 46 -14z"/>
<path d="M1902 1200 c-30 -7 -72 -42 -72 -62 0 -4 -238 -8 -530 -8 -291 0
-530 -3 -531 -7 0 -5 -2 -27 -2 -51 l-2 -42 530 0 531 0 27 -31 c48 -55 144
-50 186 10 70 98 -16 217 -137 191z m122 -76 c10 -25 7 -49 -8 -69 -12 -16
-16 -17 -30 -6 -28 24 -18 91 14 91 10 0 21 -7 24 -16z"/>
</g>
</svg>
